<svg width="234" height="156" viewBox="0 0 234 156" fill="none" xmlns="http://www.w3.org/2000/svg">
<path d="M189.077 13.417C186.042 16.3104 181.308 16.4914 178.067 13.8332C181.102 10.9362 185.836 10.7583 189.077 13.417Z" fill="url(#paint0_linear)" stroke="#8B63E6"/>
<path d="M175.67 15.6595C179.245 18.9732 179.455 24.5566 176.141 28.1266C172.566 24.813 172.357 19.2296 175.67 15.6595Z" fill="#FD9271"/>
<path d="M175.811 11.7385C172.914 8.70463 172.736 3.97349 175.395 0.728791C178.292 3.76308 178.47 8.49776 175.811 11.7385Z" fill="#5C75C9" stroke="#8B63E6"/>
<path d="M173.441 14.2934C170.407 17.1905 165.672 17.3683 162.431 14.7094C165.465 11.8124 170.2 11.6345 173.441 14.2934Z" fill="url(#paint1_linear)" stroke="#8B63E6"/>
<path opacity="0.34" d="M46.6418 33.216C43.3794 40.6077 15.812 42.155 8.26649 28.5694C5.48412 23.5593 5.07865 15.86 8.89101 12.0336C15.3786 5.52744 32.921 11.3532 41.7156 21.8442C44.0505 24.6172 48.2357 29.6087 46.6418 33.216Z" fill="url(#paint2_linear)"/>
<path opacity="0.34" d="M32.2172 151.884C37.1248 133.936 46.5672 110.111 65.6197 104.164C82.0809 99.0283 82.4771 111.71 102.527 114.66C155.415 122.448 180.191 48.7078 209.105 60.2615C227.51 67.6159 238.686 91.9954 231.211 119.325C226.941 134.924 218.566 145.779 213.076 151.772L32.2172 151.884Z" fill="url(#paint3_linear)"/>
<path d="M14.9684 152.434H171.555" stroke="#8B63E6" stroke-width="5.7289" stroke-miterlimit="10" stroke-linecap="round"/>
<path d="M179.068 152.215H189.606" stroke="#8B63E6" stroke-width="5.7289" stroke-miterlimit="10" stroke-linecap="round"/>
<path d="M3 152.215H9.20791" stroke="#8B63E6" stroke-width="5.7289" stroke-miterlimit="10" stroke-linecap="round"/>
<path d="M163.432 49.8264V154H46.2363V49.8264C46.2363 43.7397 51.1719 38.8041 57.2633 38.8041H152.409C158.496 38.7994 163.432 43.735 163.432 49.8264Z" fill="url(#paint4_linear)"/>
<path d="M163.432 49.8264V59.828H46.2363V49.8264C46.2363 43.7396 51.1719 38.8041 57.2586 38.8041H152.409C158.496 38.8041 163.432 43.7396 163.432 49.8264Z" fill="#8B63E6"/>
<path d="M64.8414 52.4223C66.5582 52.4223 67.95 51.0305 67.95 49.3137C67.95 47.5969 66.5582 46.2051 64.8414 46.2051C63.1246 46.2051 61.7328 47.5969 61.7328 49.3137C61.7328 51.0305 63.1246 52.4223 64.8414 52.4223Z" fill="white"/>
<path d="M75.337 52.4223C77.0538 52.4223 78.4456 51.0305 78.4456 49.3137C78.4456 47.5969 77.0538 46.2051 75.337 46.2051C73.6201 46.2051 72.2283 47.5969 72.2283 49.3137C72.2283 51.0305 73.6201 52.4223 75.337 52.4223Z" fill="white"/>
<path d="M85.8326 52.4223C87.5495 52.4223 88.9412 51.0305 88.9412 49.3137C88.9412 47.5969 87.5495 46.2051 85.8326 46.2051C84.1158 46.2051 82.724 47.5969 82.724 49.3137C82.724 51.0305 84.1158 52.4223 85.8326 52.4223Z" fill="white"/>
<path opacity="0.69" d="M82.4168 110.145L122.363 110.145L122.363 106.854L82.4168 106.854L82.4168 110.145Z" fill="#A1BFF1"/>
<path opacity="0.69" d="M82.4168 120.258L122.363 120.258L122.363 116.968L82.4168 116.968L82.4168 120.258Z" fill="#A1BFF1"/>
<path d="M124.236 144.982C126.048 144.982 127.517 143.513 127.517 141.701C127.517 139.889 126.048 138.42 124.236 138.42C122.424 138.42 120.955 139.889 120.955 141.701C120.955 143.513 122.424 144.982 124.236 144.982Z" fill="#A1BFF1"/>
<path d="M107.803 145.28C109.615 145.28 111.084 143.811 111.084 141.999C111.084 140.187 109.615 138.718 107.803 138.718C105.991 138.718 104.522 140.187 104.522 141.999C104.522 143.811 105.991 145.28 107.803 145.28Z" fill="#A1BFF1"/>
<path d="M91.3649 144.982C93.177 144.982 94.646 143.513 94.646 141.701C94.646 139.889 93.177 138.42 91.3649 138.42C89.5528 138.42 88.0839 139.889 88.0839 141.701C88.0839 143.513 89.5528 144.982 91.3649 144.982Z" fill="#A1BFF1"/>
<path opacity="0.36" d="M79.1727 102.943V148.645C79.1727 151.604 76.7772 154 73.8177 154H46.2363V92.042H69.2923C74.7498 92.042 79.1727 96.9216 79.1727 102.943Z" fill="url(#paint5_linear)"/>
<path opacity="0.36" d="M78.8279 102.253V153.31H48.8556V91.3523H68.9428C74.4003 91.3523 78.8279 96.2319 78.8279 102.253Z" fill="url(#paint6_linear)"/>
<path d="M71.9302 105.903V153.161H32.8558C27.3935 153.161 22.9706 148.734 22.9706 143.276V96.0176H62.0497C67.5026 96.0176 71.9302 100.445 71.9302 105.903Z" fill="#FED4C4"/>
<path d="M45.1364 125.715C45.1364 125.715 48.1844 124.69 49.3449 124.233C50.0906 123.939 50.7104 123.422 50.7384 122.63C50.5939 122.485 50.4681 122.327 50.3562 122.154L49.5826 120.952C49.1491 120.276 48.8882 119.526 48.8182 118.752C48.6178 118.701 48.5106 118.58 48.3941 118.393C48.3848 118.374 48.3755 118.356 48.3662 118.337L47.8861 117.209C47.7603 116.841 47.9374 116.45 48.3102 116.254L48.3568 116.231C48.5013 116.156 48.6644 116.165 48.7949 116.226V114.268C48.7949 113.597 48.52 111.901 49.536 111.197C51.1485 110.079 54.3737 109.874 55.2219 111.276C57.7806 110.885 57.7806 112.81 57.7806 114.46L57.6174 116.179C57.6967 116.175 57.7806 116.193 57.8598 116.231L57.9064 116.254C58.2792 116.445 58.4564 116.841 58.3305 117.209L57.8505 118.337C57.8412 118.356 57.8318 118.374 57.8225 118.393C57.706 118.58 57.5941 118.701 57.3937 118.752C57.3145 119.53 57.0489 120.29 56.6014 120.966L55.8091 122.173C55.66 122.401 55.4782 122.602 55.2732 122.779C55.3757 123.478 55.9536 123.953 56.6574 124.21C57.7479 124.606 61.0476 125.72 61.0476 125.72C62.7208 126.297 63.8487 127.873 63.8487 129.644V130.175H42.368V129.62C42.368 127.868 43.4772 126.302 45.1364 125.715Z" fill="#FA8A68"/>
<path opacity="0.72" d="M71.9301 105.903V153.166H71.2497V106.495C71.2497 101.032 66.8221 96.6048 61.3599 96.6048H22.9659V96.0129H62.045C67.5026 96.0176 71.9301 100.441 71.9301 105.903Z" fill="url(#paint7_linear)"/>
<path d="M36.7613 96.0176V153.166H32.8558C27.3935 153.166 22.9706 148.738 22.9706 143.281V96.0222H36.7613V96.0176Z" fill="url(#paint8_linear)"/>
<path d="M36.7613 96.0176H32.8884V153.166H36.7613V96.0176Z" fill="white"/>
<path d="M171.578 93.4215H171.55C171.592 93.4215 171.574 108.121 171.56 115.788C171.555 118.314 169.514 120.355 166.992 120.369C158.888 120.406 142.827 120.43 142.827 120.43H134.452C130.77 120.43 127.787 123.412 127.787 127.09V100.021C127.787 96.3763 130.742 93.4168 134.396 93.4168H166.447C167.864 93.4168 169.146 92.8389 170.073 91.9115C171.005 90.984 171.578 89.7023 171.578 88.2855V93.4215Z" fill="url(#paint9_linear)"/>
<path d="M128.929 124.213L128.929 124.213C129.324 123.329 130.117 122.502 131.092 121.893C132.067 121.285 133.174 120.925 134.154 120.925H137.48V126.54C137.48 127.464 137.479 128.406 137.478 129.362L137.478 129.405C137.477 130.376 137.476 131.361 137.476 132.356V133.25H134.452C132.748 133.25 131.211 132.565 130.1 131.445L130.097 131.442C128.383 129.741 127.668 127.032 128.929 124.213Z" fill="#8B63E6" stroke="#8B63E6"/>
<path opacity="0.25" d="M162.975 120.43H137.98V133.656H162.975V120.43Z" fill="url(#paint10_linear)"/>
<path opacity="0.25" d="M163.576 83.1589H137.98V93.4216H163.576V83.1589Z" fill="url(#paint11_linear)"/>
<path d="M164.081 92.9262V83.6636L166.27 83.6636L166.271 83.6636C168.761 83.6593 170.907 85.5366 171.07 87.9786C171.163 89.3814 170.633 90.6629 169.725 91.5665L169.724 91.5673C168.886 92.4055 167.73 92.9262 166.452 92.9262H164.081Z" fill="#8B63E6" stroke="#8B63E6"/>
<path d="M136.922 86.9107C141.64 86.9107 145.465 83.0859 145.465 78.3678C145.465 73.6497 141.64 69.825 136.922 69.825C132.204 69.825 128.379 73.6497 128.379 78.3678C128.379 83.0859 132.204 86.9107 136.922 86.9107Z" fill="white"/>
<path d="M142.771 84.3334V84.5944C142.757 84.6083 142.743 84.6223 142.725 84.6363C141.201 86.0485 139.159 86.9107 136.922 86.9107C134.68 86.9107 132.644 86.0485 131.12 84.6363C131.106 84.6223 131.092 84.6083 131.078 84.5944V84.3474C131.078 83.3826 131.688 82.5251 132.602 82.2128C132.602 82.2128 134.401 81.6069 134.993 81.3879C135.375 81.2481 135.692 80.9871 135.748 80.6096C135.636 80.5117 135.538 80.4045 135.454 80.2787L135.021 79.6215C134.778 79.2533 134.634 78.8385 134.592 78.4144C134.48 78.3865 134.424 78.3212 134.359 78.2187C134.354 78.2094 134.349 78.2 134.345 78.1907L134.084 77.5755C134.014 77.3751 134.112 77.1607 134.317 77.0582L134.345 77.0442C134.387 77.0209 134.433 77.0162 134.475 77.0162L134.387 76.0795C134.387 75.18 134.387 74.1313 135.78 74.3457C136.242 73.5814 137.999 73.6932 138.875 74.3038C139.43 74.6859 139.276 75.6134 139.276 75.9769V77.0442C139.346 77.0116 139.434 77.0069 139.513 77.0442L139.541 77.0582C139.746 77.1607 139.84 77.3798 139.774 77.5755L139.513 78.1907C139.509 78.2 139.504 78.2094 139.499 78.2187C139.434 78.3212 139.378 78.3865 139.266 78.4144C139.229 78.8339 139.085 79.244 138.847 79.6122L138.428 80.2647C138.367 80.3579 138.297 80.4464 138.218 80.521C138.232 80.9498 138.572 81.2341 138.977 81.3925C139.611 81.6396 141.27 82.1988 141.27 82.1988C142.165 82.5204 142.771 83.3733 142.771 84.3334Z" fill="#8B63E6"/>
<path d="M145.465 78.3678C145.465 80.8193 144.43 83.0331 142.771 84.5897V84.3287C142.771 83.3686 142.165 82.5157 141.266 82.1988C141.266 82.1988 139.607 81.6396 138.973 81.3925C138.567 81.2341 138.227 80.9498 138.213 80.521C138.292 80.4418 138.362 80.3579 138.423 80.2647L138.842 79.6122C139.08 79.244 139.22 78.8339 139.262 78.4144C139.369 78.3865 139.43 78.3212 139.495 78.2187C139.5 78.2094 139.504 78.2 139.509 78.1907L139.77 77.5755C139.84 77.3751 139.742 77.1607 139.537 77.0582L139.509 77.0442C139.43 77.0023 139.341 77.0069 139.271 77.0442V75.9769C139.271 75.6087 139.42 74.6859 138.87 74.3038C137.989 73.6932 136.237 73.5814 135.776 74.3457C134.382 74.1313 134.382 75.18 134.382 76.0795L134.471 77.0162C134.429 77.0162 134.382 77.0256 134.34 77.0442L134.312 77.0582C134.107 77.1607 134.014 77.3798 134.079 77.5755L134.34 78.1907C134.345 78.2 134.35 78.2094 134.354 78.2187C134.419 78.3212 134.48 78.3865 134.587 78.4144C134.629 78.8385 134.774 79.2533 135.016 79.6215L135.449 80.2787C135.529 80.4045 135.631 80.5117 135.743 80.6096C135.687 80.9917 135.37 81.2481 134.988 81.3879C134.396 81.6023 132.597 82.2128 132.597 82.2128C131.684 82.5251 131.073 83.3826 131.073 84.3474V84.5944C129.414 83.0377 128.379 80.8239 128.379 78.3678C128.379 73.6513 132.201 69.825 136.922 69.825C141.639 69.8296 145.465 73.6513 145.465 78.3678Z" fill="white"/>
<path d="M131.078 84.5944C131.092 84.6084 131.106 84.6225 131.12 84.6366H131.078V84.5944Z" fill="url(#paint12_linear)"/>
<path d="M142.771 84.5944V84.6366H142.725C142.743 84.6225 142.757 84.6084 142.771 84.5944Z" fill="url(#paint13_linear)"/>
<path d="M106.913 86.9107C111.631 86.9107 115.456 83.0859 115.456 78.3678C115.456 73.6497 111.631 69.825 106.913 69.825C102.195 69.825 98.3702 73.6497 98.3702 78.3678C98.3702 83.0859 102.195 86.9107 106.913 86.9107Z" fill="white"/>
<path d="M112.762 84.3334V84.5944C112.748 84.6083 112.734 84.6223 112.715 84.6363C111.191 86.0485 109.15 86.9107 106.913 86.9107C104.671 86.9107 102.634 86.0485 101.11 84.6363C101.096 84.6223 101.082 84.6083 101.068 84.5944V84.3474C101.068 83.3826 101.679 82.5251 102.592 82.2128C102.592 82.2128 104.391 81.6069 104.983 81.3879C105.365 81.2481 105.682 80.9871 105.738 80.6096C105.626 80.5117 105.528 80.4045 105.444 80.2787L105.011 79.6215C104.769 79.2533 104.624 78.8385 104.582 78.4144C104.47 78.3865 104.414 78.3212 104.349 78.2187C104.345 78.2094 104.34 78.2 104.335 78.1907L104.074 77.5755C104.004 77.3751 104.102 77.1607 104.307 77.0582L104.335 77.0442C104.377 77.0209 104.424 77.0162 104.466 77.0162L104.377 76.0795C104.377 75.18 104.377 74.1313 105.771 74.3457C106.232 73.5814 107.989 73.6932 108.865 74.3038C109.42 74.6859 109.266 75.6134 109.266 75.9769V77.0442C109.336 77.0116 109.425 77.0069 109.504 77.0442L109.532 77.0582C109.737 77.1607 109.83 77.3798 109.765 77.5755L109.504 78.1907C109.499 78.2 109.495 78.2094 109.49 78.2187C109.425 78.3212 109.369 78.3865 109.257 78.4144C109.22 78.8339 109.075 79.244 108.837 79.6122L108.418 80.2647C108.357 80.3579 108.287 80.4464 108.208 80.521C108.222 80.9498 108.562 81.2341 108.968 81.3925C109.602 81.6396 111.261 82.1988 111.261 82.1988C112.156 82.5204 112.762 83.3733 112.762 84.3334Z" fill="#8B63E6"/>
<path d="M115.451 78.3678C115.451 80.8193 114.416 83.0331 112.757 84.5897V84.3287C112.757 83.3686 112.151 82.5157 111.252 82.1988C111.252 82.1988 109.592 81.6396 108.959 81.3925C108.553 81.2341 108.213 80.9498 108.199 80.521C108.278 80.4418 108.348 80.3579 108.409 80.2647L108.828 79.6122C109.066 79.244 109.206 78.8339 109.247 78.4144C109.355 78.3865 109.415 78.3212 109.481 78.2187C109.485 78.2094 109.49 78.2 109.494 78.1907L109.755 77.5755C109.825 77.3751 109.728 77.1607 109.522 77.0582L109.494 77.0442C109.415 77.0023 109.327 77.0069 109.257 77.0442V75.9769C109.257 75.6087 109.406 74.6859 108.856 74.3038C107.975 73.6932 106.223 73.5814 105.761 74.3457C104.368 74.1313 104.368 75.18 104.368 76.0795L104.456 77.0162C104.414 77.0162 104.368 77.0256 104.326 77.0442L104.298 77.0582C104.093 77.1607 104 77.3798 104.065 77.5755L104.326 78.1907C104.331 78.2 104.335 78.2094 104.34 78.2187C104.405 78.3212 104.466 78.3865 104.573 78.4144C104.615 78.8385 104.759 79.2533 105.002 79.6215L105.435 80.2787C105.514 80.4045 105.617 80.5117 105.729 80.6096C105.673 80.9917 105.356 81.2481 104.974 81.3879C104.382 81.6023 102.583 82.2128 102.583 82.2128C101.669 82.5251 101.059 83.3826 101.059 84.3474V84.5944C99.3996 83.0377 98.365 80.8239 98.365 78.3678C98.365 73.6513 102.187 69.825 106.908 69.825C111.629 69.8296 115.451 73.6513 115.451 78.3678Z" fill="white"/>
<path d="M101.064 84.5944C101.078 84.6084 101.092 84.6225 101.106 84.6366H101.064V84.5944Z" fill="url(#paint14_linear)"/>
<path d="M112.762 84.5944V84.6366H112.715C112.729 84.6225 112.743 84.6084 112.762 84.5944Z" fill="url(#paint15_linear)"/>
<path d="M76.8983 86.9107C81.6164 86.9107 85.4412 83.0859 85.4412 78.3678C85.4412 73.6497 81.6164 69.825 76.8983 69.825C72.1802 69.825 68.3555 73.6497 68.3555 78.3678C68.3555 83.0859 72.1802 86.9107 76.8983 86.9107Z" fill="white"/>
<path d="M82.7474 84.3334V84.5944C82.7335 84.6083 82.7195 84.6223 82.7008 84.6363C81.1768 86.0485 79.1355 86.9107 76.8984 86.9107C74.6567 86.9107 72.62 86.0485 71.096 84.6363C71.082 84.6223 71.068 84.6083 71.054 84.5944V84.3474C71.054 83.3826 71.6645 82.5251 72.578 82.2128C72.578 82.2128 74.377 81.6069 74.9689 81.3879C75.3511 81.2481 75.668 80.9871 75.7239 80.6096C75.6121 80.5117 75.5142 80.4045 75.4303 80.2787L74.9969 79.6215C74.7545 79.2533 74.61 78.8385 74.5681 78.4144C74.4562 78.3865 74.4003 78.3212 74.3351 78.2187C74.3304 78.2094 74.3258 78.2 74.3211 78.1907L74.0601 77.5755C73.9902 77.3751 74.0881 77.1607 74.2931 77.0582L74.3211 77.0442C74.363 77.0209 74.4096 77.0162 74.4516 77.0162L74.363 76.0795C74.363 75.18 74.363 74.1313 75.7566 74.3457C76.218 73.5814 77.975 73.6932 78.8512 74.3038C79.4058 74.6859 79.252 75.6134 79.252 75.9769V77.0442C79.3219 77.0116 79.4105 77.0069 79.4897 77.0442L79.5176 77.0582C79.7227 77.1607 79.8159 77.3798 79.7507 77.5755L79.4897 78.1907C79.485 78.2 79.4804 78.2094 79.4757 78.2187C79.4105 78.3212 79.3545 78.3865 79.2427 78.4144C79.2054 78.8339 79.0609 79.244 78.8232 79.6122L78.4038 80.2647C78.3432 80.3579 78.2733 80.4464 78.194 80.521C78.208 80.9498 78.5482 81.2341 78.9537 81.3925C79.5876 81.6396 81.2467 82.1988 81.2467 82.1988C82.1416 82.5204 82.7474 83.3733 82.7474 84.3334Z" fill="#8B63E6"/>
<path d="M85.4412 78.3678C85.4412 80.8193 84.4066 83.0331 82.7474 84.5897V84.3287C82.7474 83.3686 82.1415 82.5157 81.242 82.1988C81.242 82.1988 79.5828 81.6396 78.949 81.3925C78.5435 81.2341 78.2033 80.9498 78.1893 80.521C78.2686 80.4418 78.3385 80.3579 78.399 80.2647L78.8185 79.6122C79.0562 79.244 79.196 78.8339 79.238 78.4144C79.3452 78.3865 79.4057 78.3212 79.471 78.2187C79.4756 78.2094 79.4803 78.2 79.485 78.1907L79.746 77.5755C79.8159 77.3751 79.718 77.1607 79.5129 77.0582L79.485 77.0442C79.4057 77.0023 79.3172 77.0069 79.2473 77.0442V75.9769C79.2473 75.6087 79.3964 74.6859 78.8465 74.3038C77.9656 73.6932 76.2132 73.5814 75.7518 74.3457C74.3583 74.1313 74.3583 75.18 74.3583 76.0795L74.4469 77.0162C74.4049 77.0162 74.3583 77.0256 74.3164 77.0442L74.2884 77.0582C74.0833 77.1607 73.9901 77.3798 74.0554 77.5755L74.3164 78.1907C74.321 78.2 74.3257 78.2094 74.3304 78.2187C74.3956 78.3212 74.4562 78.3865 74.5634 78.4144C74.6053 78.8385 74.7498 79.2533 74.9922 79.6215L75.4256 80.2787C75.5048 80.4045 75.6074 80.5117 75.7192 80.6096C75.6633 80.9917 75.3464 81.2481 74.9642 81.3879C74.3723 81.6023 72.5733 82.2128 72.5733 82.2128C71.6598 82.5251 71.0493 83.3826 71.0493 84.3474V84.5944C69.3901 83.0377 68.3555 80.8239 68.3555 78.3678C68.3555 73.6513 72.1772 69.825 76.8983 69.825C81.6149 69.8296 85.4412 73.6513 85.4412 78.3678Z" fill="white"/>
<path d="M71.054 84.5944C71.0681 84.6084 71.0822 84.6225 71.0962 84.6366H71.054V84.5944Z" fill="url(#paint16_linear)"/>
<path d="M82.7477 84.5944V84.6366H82.7008C82.7196 84.6225 82.7336 84.6084 82.7477 84.5944Z" fill="url(#paint17_linear)"/>
<path d="M22.966 56.9996L23.0025 57.0661C23.0026 57.0663 23.0026 57.0664 23.0027 57.0666C23.6318 58.2188 24.5818 59.163 25.731 59.7954L25.7316 59.7957L25.7991 59.8327L25.7325 59.8692C25.7324 59.8692 25.7322 59.8693 25.7321 59.8694C24.5799 60.4984 23.6356 61.4485 23.0033 62.5977L23.0029 62.5983L22.966 62.6658L22.9295 62.5992C22.9294 62.5991 22.9293 62.599 22.9293 62.5988C22.3002 61.4466 21.3502 60.5023 20.2009 59.87L20.2003 59.8696L20.1329 59.8327L20.1994 59.7962C20.1996 59.7961 20.1997 59.796 20.1999 59.7959C21.3521 59.1669 22.2963 58.2168 22.9287 57.0676L22.929 57.067L22.966 56.9996Z" fill="#8B63E6" stroke="#8B63E6"/>
<path d="M195.287 114.744L195.762 115.611C196.345 116.678 197.226 117.554 198.293 118.141L199.16 118.617L198.293 119.092C197.226 119.675 196.349 120.556 195.762 121.623L195.287 122.49L194.811 121.623C194.229 120.556 193.348 119.679 192.281 119.092L191.414 118.617L192.281 118.141C193.348 117.559 194.224 116.678 194.811 115.611L195.287 114.744Z" fill="#8B63E6"/>
<path d="M114.74 20.6842C115.892 20.0552 116.837 19.1051 117.469 17.9559L117.469 17.9553L117.506 17.8879L117.543 17.9545C117.543 17.9546 117.543 17.9548 117.543 17.9549C118.172 19.1071 119.122 20.0514 120.271 20.6837L120.272 20.684L120.339 20.721L120.273 20.7575C120.273 20.7576 120.272 20.7577 120.272 20.7577C119.12 21.3868 118.176 22.3368 117.544 23.486L117.543 23.4866L117.506 23.5541L117.47 23.4875C117.47 23.4874 117.47 23.4873 117.469 23.4871C116.84 22.3349 115.89 21.3906 114.741 20.7583L114.741 20.7579L114.673 20.721L114.74 20.6845C114.74 20.6844 114.74 20.6843 114.74 20.6842Z" fill="#8B63E6" stroke="#8B63E6"/>
<defs>
<linearGradient id="paint0_linear" x1="186.521" y1="10.4096" x2="180.523" y2="16.8793" gradientUnits="userSpaceOnUse">
<stop stop-color="#373282"/>
<stop offset="0.4363" stop-color="#323A8F"/>
<stop offset="1" stop-color="#2E419B"/>
</linearGradient>
<linearGradient id="paint1_linear" x1="170.886" y1="11.2878" x2="164.887" y2="17.7575" gradientUnits="userSpaceOnUse">
<stop stop-color="#373282"/>
<stop offset="0.4363" stop-color="#323A8F"/>
<stop offset="1" stop-color="#2E419B"/>
</linearGradient>
<linearGradient id="paint2_linear" x1="31.893" y1="50.7708" x2="21.5047" y2="3.39764" gradientUnits="userSpaceOnUse">
<stop stop-color="#D6E6FD"/>
<stop offset="1" stop-color="#D2E3FD"/>
</linearGradient>
<linearGradient id="paint3_linear" x1="31.2215" y1="147.763" x2="227.242" y2="100.505" gradientUnits="userSpaceOnUse">
<stop stop-color="#D6E6FD"/>
<stop offset="1" stop-color="#D2E3FD"/>
</linearGradient>
<linearGradient id="paint4_linear" x1="46.2358" y1="96.3997" x2="163.434" y2="96.3997" gradientUnits="userSpaceOnUse">
<stop stop-color="#EDEDFA"/>
<stop offset="1" stop-color="#D2E3FD"/>
</linearGradient>
<linearGradient id="paint5_linear" x1="62.7052" y1="156.321" x2="62.7052" y2="89.6575" gradientUnits="userSpaceOnUse">
<stop stop-color="#5C75C9"/>
<stop offset="1" stop-color="#D2E3FD"/>
</linearGradient>
<linearGradient id="paint6_linear" x1="63.8406" y1="155.63" x2="63.8406" y2="88.9664" gradientUnits="userSpaceOnUse">
<stop stop-color="#5C75C9"/>
<stop offset="1" stop-color="#D2E3FD"/>
</linearGradient>
<linearGradient id="paint7_linear" x1="47.4498" y1="154.245" x2="47.4498" y2="93.9202" gradientUnits="userSpaceOnUse">
<stop stop-color="#FD9271"/>
<stop offset="1" stop-color="#FED4C4"/>
</linearGradient>
<linearGradient id="paint8_linear" x1="29.8637" y1="163.238" x2="29.8637" y2="96.3422" gradientUnits="userSpaceOnUse">
<stop stop-color="#FD9271"/>
<stop offset="1" stop-color="#EB8B75" stop-opacity="0"/>
</linearGradient>
<linearGradient id="paint9_linear" x1="149.685" y1="127.202" x2="149.685" y2="73.3396" gradientUnits="userSpaceOnUse">
<stop stop-color="#FD9271"/>
<stop offset="1" stop-color="#FCA790"/>
</linearGradient>
<linearGradient id="paint10_linear" x1="137.981" y1="127.045" x2="162.975" y2="127.045" gradientUnits="userSpaceOnUse">
<stop stop-color="#5C75C9"/>
<stop offset="1" stop-color="#D2E3FD"/>
</linearGradient>
<linearGradient id="paint11_linear" x1="139.354" y1="88.2903" x2="163.149" y2="88.2903" gradientUnits="userSpaceOnUse">
<stop stop-color="#D2E3FD"/>
<stop offset="1" stop-color="#5C75C9"/>
</linearGradient>
<linearGradient id="paint12_linear" x1="131.097" y1="84.653" x2="131.097" y2="84.5964" gradientUnits="userSpaceOnUse">
<stop stop-color="#5C75C9"/>
<stop offset="1" stop-color="#2E419B"/>
</linearGradient>
<linearGradient id="paint13_linear" x1="142.749" y1="84.6534" x2="142.749" y2="84.5954" gradientUnits="userSpaceOnUse">
<stop stop-color="#5C75C9"/>
<stop offset="1" stop-color="#2E419B"/>
</linearGradient>
<linearGradient id="paint14_linear" x1="101.086" y1="84.653" x2="101.086" y2="84.5964" gradientUnits="userSpaceOnUse">
<stop stop-color="#5C75C9"/>
<stop offset="1" stop-color="#2E419B"/>
</linearGradient>
<linearGradient id="paint15_linear" x1="112.737" y1="84.6534" x2="112.737" y2="84.5954" gradientUnits="userSpaceOnUse">
<stop stop-color="#5C75C9"/>
<stop offset="1" stop-color="#2E419B"/>
</linearGradient>
<linearGradient id="paint16_linear" x1="71.074" y1="84.653" x2="71.074" y2="84.5964" gradientUnits="userSpaceOnUse">
<stop stop-color="#5C75C9"/>
<stop offset="1" stop-color="#2E419B"/>
</linearGradient>
<linearGradient id="paint17_linear" x1="82.7257" y1="84.6534" x2="82.7257" y2="84.5954" gradientUnits="userSpaceOnUse">
<stop stop-color="#5C75C9"/>
<stop offset="1" stop-color="#2E419B"/>
</linearGradient>
</defs>
</svg>
