<svg width="263" height="105" viewBox="0 0 263 105" fill="none" xmlns="http://www.w3.org/2000/svg">

<g opacity="0.9">
<path d="M239.914 57.593H210.424C209.614 57.593 208.959 58.2476 208.959 59.0575V96.2251H239.914V57.593Z" fill="#EAEAFA"/>
<rect x="211.811" y="60.4333" width="25.274" height="14.3789" fill="#DADAF5"/>
<rect x="211.811" y="77.5415" width="25.274" height="14.3789" fill="#DADAF5"/>
<path d="M239.914 57.593V96.2251H256.057V59.0575C256.057 58.2476 255.402 57.593 254.592 57.593H239.914Z" fill="#DADAF5"/>
<path d="M208.97 96.2252H213.919L213.098 102.083C212.976 102.904 212.277 103.515 211.445 103.515C210.612 103.515 209.914 102.904 209.791 102.083L208.97 96.2252Z" fill="#DADAF5"/>
<path d="M239.914 96.2252L239.093 102.083C238.971 102.904 238.272 103.515 237.44 103.515C236.608 103.515 235.909 102.904 235.787 102.083L234.966 96.2252H239.914Z" fill="#DADAF5"/>
<path d="M225.113 96.2252H230.062L229.241 102.083C229.119 102.904 228.42 103.515 227.588 103.515C226.755 103.515 226.056 102.904 225.934 102.083L225.113 96.2252Z" fill="#C8C8EE"/>
<path d="M256.068 96.2252L255.247 102.083C255.125 102.904 254.426 103.515 253.594 103.515C252.762 103.515 252.063 102.904 251.941 102.083L251.12 96.2252H256.068Z" fill="#C8C8EE"/>
<path d="M244.241 39.4421C244.163 32.7076 238.682 27.26 231.926 27.26C225.169 27.26 219.688 32.6965 219.61 39.4421H244.241Z" fill="#FED8D8"/>
<path d="M244.174 39.5752C244.174 40.2519 238.693 40.8067 231.937 40.8067C225.169 40.8067 219.688 40.2519 219.688 39.5752C219.688 38.976 224.015 38.4768 229.718 38.3658C230.439 38.3547 231.182 38.3436 231.937 38.3436C232.691 38.3436 233.434 38.3547 234.156 38.3658C239.847 38.4768 244.174 38.976 244.174 39.5752Z" fill="#FCB3B3"/>
<path d="M237.506 57.593L236.863 55.5516C236.719 55.1078 236.308 54.8082 235.853 54.8082H228.009C227.543 54.8082 227.133 55.1078 227 55.5516L226.356 57.593H237.506Z" fill="#DADAF5"/>
<rect x="231.437" y="39.5863" width="0.965247" height="15.2221" fill="#C8C8EE"/>
<path d="M234.144 38.3769C233.856 39.32 232.968 40.019 231.926 40.019C230.883 40.019 229.995 39.3311 229.707 38.3769C230.428 38.3658 231.171 38.3547 231.926 38.3547C232.68 38.3547 233.423 38.3547 234.144 38.3769Z" fill="#C8C8EE"/>
<path d="M226.023 66.2471C226.023 67.1236 225.313 67.8336 224.437 67.8336C223.56 67.8336 222.85 67.1236 222.85 66.2471C222.85 65.3706 223.56 64.6605 224.437 64.6605C225.313 64.6605 226.023 65.3706 226.023 66.2471Z" fill="#C8C8EE"/>
<path d="M226.023 81.7022C226.023 82.5786 225.313 83.2887 224.437 83.2887C223.56 83.2887 222.85 82.5786 222.85 81.7022C222.85 80.8257 223.56 80.1156 224.437 80.1156C225.313 80.1156 226.023 80.8257 226.023 81.7022Z" fill="#C8C8EE"/>
<rect x="7.32251" y="57.5154" width="83.4662" height="37.8222" fill="#EAEAFA"/>
<rect x="79.3263" y="61.7357" width="29.3679" height="67.767" transform="rotate(90 79.3263 61.7357)" fill="#DADAF5"/>
<path d="M79.3278 61.7314V64.0614H13.691V91.1105H11.5608V61.7314H79.3278Z" fill="#C8C8EE"/>
<rect x="7.32251" y="57.5154" width="83.4662" height="2.1302" fill="#DADAF5"/>
<rect x="84.8197" y="57.5154" width="5.9801" height="2.1302" fill="#C8C8EE"/>
<path d="M91.9538 57.5154H6.63476C5.7028 57.5154 4.93726 56.7609 4.93726 55.8179C4.93726 54.8859 5.6917 54.1204 6.63476 54.1204H91.9538C92.8857 54.1204 93.6513 54.8748 93.6513 55.8179C93.6513 56.7498 92.8857 57.5154 91.9538 57.5154Z" fill="#EAEAFA"/>
<path d="M95.0047 54.1205H3.58361C2.65165 54.1205 1.88611 53.366 1.88611 52.423C1.88611 51.491 2.64055 50.7255 3.58361 50.7255H95.0047C95.9367 50.7255 96.7022 51.4799 96.7022 52.423C96.7022 53.366 95.9367 54.1205 95.0047 54.1205Z" fill="#DADAF5"/>
<rect x="84.8197" y="57.5154" width="5.9801" height="46.1655" fill="#DADAF5"/>
<path d="M84.8196 95.3375H79.3943L80.4927 100.741C80.8366 102.449 82.3455 103.681 84.0874 103.681H84.8196V95.3375Z" fill="#EAEAFA"/>
<rect x="7.32251" y="95.3376" width="5.9801" height="8.34329" fill="#EAEAFA"/>
<path d="M13.3026 95.3376V103.681H14.0349C15.7768 103.681 17.2856 102.449 17.6296 100.741L18.7058 95.3376H13.3026Z" fill="#DADAF5"/>
<rect x="118.703" y="6.77893" width="83.4662" height="88.5587" fill="#EAEAFA"/>
<rect x="190.701" y="11.011" width="80.1044" height="67.767" transform="rotate(90 190.701 11.011)" fill="#DADAF5"/>
<path d="M190.708 11.006V13.3359H125.06V91.1104H122.93V11.006H190.708Z" fill="#C8C8EE"/>
<rect x="118.703" y="6.77893" width="83.4662" height="2.1302" fill="#DADAF5"/>
<rect x="196.2" y="6.77893" width="5.9801" height="2.1302" fill="#C8C8EE"/>
<path d="M203.334 6.77904H118.015C117.083 6.77904 116.318 6.0246 116.318 5.08154C116.318 4.14957 117.072 3.38403 118.015 3.38403H203.334C204.266 3.38403 205.032 4.13848 205.032 5.08154C205.032 6.0246 204.266 6.77904 203.334 6.77904Z" fill="#EAEAFA"/>
<path d="M206.385 3.39501H114.964C114.032 3.39501 113.267 2.64056 113.267 1.6975C113.267 0.765541 114.021 0 114.964 0H206.385C207.317 0 208.083 0.754446 208.083 1.6975C208.072 2.62947 207.317 3.39501 206.385 3.39501Z" fill="#DADAF5"/>
<rect x="196.2" y="6.77893" width="5.9801" height="96.902" fill="#DADAF5"/>
<path d="M196.2 95.3376H190.775L191.873 100.741C192.217 102.449 193.726 103.681 195.468 103.681H196.2V95.3376Z" fill="#EAEAFA"/>
<rect x="118.703" y="95.3376" width="5.9801" height="8.34329" fill="#EAEAFA"/>
<path d="M124.683 95.3376V103.681H125.415C127.157 103.681 128.666 102.449 129.01 100.741L130.086 95.3376H124.683Z" fill="#DADAF5"/>
<rect x="90.7998" y="79.6497" width="99.9087" height="6.93425" fill="#C8C8EE"/>
<path d="M190.708 79.6496H90.7998V63.4512H174.51C183.452 63.4512 190.708 70.6961 190.708 79.6496Z" fill="url(#paint0_linear)"/>
<path d="M159.61 70.8404V91.7208H111.314V70.8404C111.314 66.7575 108.008 63.4402 103.914 63.4402H152.21C156.292 63.4513 159.61 66.7575 159.61 70.8404Z" fill="url(#paint1_linear)"/>
<path d="M152.631 63.4511H127.268C125.693 63.4511 124.484 62.0421 124.717 60.4777L126.958 45.9657C127.157 44.712 128.234 43.78 129.51 43.78H154.872C156.448 43.78 157.657 45.1891 157.424 46.7534L155.183 61.2654C154.983 62.5191 153.907 63.4511 152.631 63.4511Z" fill="url(#paint2_linear)"/>
<path d="M151 62.0865C150.512 62.0865 150.212 61.8203 150.079 61.6649C149.946 61.5096 149.724 61.1657 149.802 60.6886L152.054 46.1766C152.143 45.5775 152.653 45.1448 153.252 45.1448H155.094C155.582 45.1448 155.882 45.4111 156.015 45.5664C156.148 45.7217 156.37 46.0656 156.292 46.5538L154.04 61.0658C153.951 61.6649 153.441 62.0976 152.842 62.0976H151V62.0865Z" fill="#C8C8EE"/>
<path d="M185.394 63.4511H160.031C158.456 63.4511 157.247 62.0421 157.48 60.4777L159.721 45.9657C159.92 44.712 160.997 43.78 162.272 43.78H187.635C189.211 43.78 190.42 45.1891 190.187 46.7534L187.946 61.2654C187.746 62.5191 186.659 63.4511 185.394 63.4511Z" fill="url(#paint3_linear)"/>
<path d="M183.763 62.0865C183.275 62.0865 182.975 61.8203 182.842 61.6649C182.709 61.5096 182.487 61.1657 182.565 60.6886L184.817 46.1766C184.906 45.5775 185.416 45.1448 186.015 45.1448H187.857C188.345 45.1448 188.645 45.4111 188.778 45.5664C188.911 45.7217 189.133 46.0656 189.055 46.5538L186.803 61.0658C186.714 61.6649 186.204 62.0976 185.605 62.0976H183.763V62.0865Z" fill="#C8C8EE"/>
<path d="M262.081 104.502H0.865394C0.388318 104.502 0 104.114 0 103.637C0 103.16 0.388318 102.771 0.865394 102.771H262.081C262.558 102.771 262.947 103.16 262.947 103.637C262.947 104.114 262.558 104.502 262.081 104.502Z" fill="#C5CCED"/>
<path d="M168.996 93.4294H171.57C171.77 95.249 170.261 99.1655 172.713 100.275C175.708 101.64 176.94 102.128 177.539 103.792C177.606 103.981 177.473 104.191 177.273 104.191H168.674C168.497 104.191 168.353 104.036 168.397 103.859C168.552 103.015 169.384 94.9605 168.996 93.4294Z" fill="#121C7C"/>
<path d="M145.597 93.4294H148.171C148.371 95.249 146.862 99.1655 149.314 100.275C152.31 101.64 153.53 102.128 154.14 103.792C154.207 103.981 154.074 104.191 153.874 104.191H145.275C145.098 104.191 144.954 104.036 144.998 103.859C145.153 103.015 145.997 94.9605 145.597 93.4294Z" fill="#121C7C"/>
<path d="M137.398 50.5258C137.398 50.5258 156.614 52.7448 161.729 56.3506C163.948 57.9149 172.313 96.3473 172.313 96.3473C172.313 96.7467 168.308 96.7467 168.308 96.3473L155.427 67.6451L147.161 57.6598C147.161 57.6598 132.661 54.8528 132.55 54.6753C132.439 54.4977 130.919 49.9711 130.919 49.9711L137.398 50.5258Z" fill="#4F5CD3"/>
<path d="M148.726 96.3472H144.721L148.681 64.7049L127.535 64.3831C125.338 64.3499 123.274 63.196 122.22 61.2766C121.2 59.4127 120.778 53.8098 122.043 51.4022L133.215 52.4673C133.215 52.4673 155.15 56.2174 157.69 60.6886C159.943 64.6494 150.801 92.9079 148.726 96.3472Z" fill="#3F47C7"/>
<path d="M146.141 96.1919C150.401 80.3818 154.972 63.0296 155.072 61.6205C155.072 61.554 155.061 61.443 154.95 61.3099C153.541 59.7011 134.214 58.1701 124.051 57.582L124.029 57.8816C136.022 58.5917 153.996 60.1338 154.75 61.5096L154.772 61.554V61.5983C154.65 63.3735 147.417 90.2784 145.83 96.1808H146.141V96.1919Z" fill="white"/>
<path d="M137.454 33.0072C137.476 33.1515 137.52 33.2846 137.553 33.4178L141.636 49.4386H141.647C141.659 49.5829 141.703 49.7271 141.736 49.8713L142.346 51.1694C142.424 51.2915 149.358 62.8966 153.474 66.4248L155.949 64.8715C155.327 63.5068 147.062 48.6176 147.006 48.3624L143.778 31.6759H143.755C143.356 30.0449 141.747 28.9687 140.072 29.2683C138.319 29.579 137.143 31.2543 137.454 33.0072Z" fill="url(#paint4_linear)"/>
<rect x="128.858" y="53.8798" width="0.532566" height="3.07335" transform="rotate(-166.161 128.858 53.8798)" fill="#6870F2"/>
<path d="M121.211 35.5812V35.7255C121.2 37.5894 121.344 39.5754 121.688 41.1841C121.732 41.3838 121.777 41.5835 121.832 41.761C121.854 41.8831 121.899 41.994 121.921 42.105C121.987 42.2936 122.043 42.4711 122.109 42.6264C122.176 42.8039 122.242 42.9482 122.32 43.0813C122.398 43.2588 122.498 43.4142 122.598 43.5473C124.528 46.1324 123.729 50.6036 123.729 50.6036C133.592 53.2996 138.43 50.6036 138.43 50.6036C138.308 50.3484 138.474 48.1405 138.607 46.4874C138.674 45.6331 139.051 44.7899 139.772 44.3128C141.048 43.4807 141.47 41.0399 141.603 39.3202C141.692 38.2884 141.681 37.5117 141.681 37.5117C141.681 37.5117 142.668 30.4221 140.959 29.357C140.582 29.1241 139.506 28.9798 138.041 28.9022C134.413 28.7246 128.422 28.9909 124.839 29.5124C123.208 29.7454 122.087 30.0338 121.865 30.3556C121.521 30.9547 121.233 33.1182 121.211 35.5812Z" fill="#FB688F"/>
<path d="M121.211 35.5701V35.7254C121.2 37.5893 121.344 39.5753 121.688 41.184C121.732 41.3837 121.777 41.5834 121.832 41.7499C121.854 41.8719 121.899 41.9829 121.932 42.1049C121.998 42.2935 122.054 42.4599 122.12 42.6153C122.187 42.7928 122.254 42.937 122.331 43.0702C122.409 43.2366 122.509 43.403 122.609 43.5361C123.596 44.8675 123.873 46.6871 123.907 48.1405C123.94 49.5273 123.751 50.5924 123.751 50.5924C128.489 51.8905 132.139 51.9349 134.658 51.6353C137.376 51.3136 138.774 50.5924 138.774 50.5924C138.652 50.3372 138.485 48.1294 138.618 46.4763C138.685 45.6109 139.062 44.7788 139.783 44.2906C141.048 43.4585 141.481 41.0176 141.614 39.2979C141.081 40.1633 140.604 41.0176 139.695 41.6833C138.33 42.6596 136.588 43.0591 134.946 42.7817C134.258 42.6818 133.592 42.4488 132.916 42.471C131.762 42.5154 130.73 43.2477 129.587 43.3808C128.145 43.5472 126.736 42.7484 125.782 41.6722C124.828 40.5738 124.251 39.2092 123.663 37.8889C123.241 36.9347 122.631 35.8585 121.643 35.7143C121.499 35.6699 121.355 35.6034 121.211 35.5701Z" fill="url(#paint5_linear)"/>
<path d="M123.075 32.6854C123.086 37.6004 124.007 41.1286 124.972 43.4806C125.027 43.2366 125.05 42.9925 125.072 42.7484C125.172 41.5058 125.283 40.2743 125.394 39.0316C125.549 37.2232 125.693 35.4036 125.593 33.5841C125.56 33.1181 125.516 32.641 125.493 32.175C124.14 32.5856 123.075 32.6854 123.075 32.6854Z" fill="#FF4F7C"/>
<path d="M118.903 50.6035C118.914 50.7366 118.925 50.8476 118.959 50.9696C119.047 51.8572 119.613 52.6671 120.49 53.0222C120.623 53.0887 133.382 58.5917 138.785 59.1132L139.484 56.4615C138.275 55.7182 131.063 51.5576 124.45 49.0835L125.327 33.4509H125.305C125.305 31.7534 124.007 30.3333 122.309 30.2113C120.534 30.0781 118.992 31.4206 118.859 33.1958C118.848 33.3511 118.848 33.4953 118.859 33.6285L118.903 50.1486V50.1597C118.892 50.3039 118.892 50.4482 118.903 50.6035Z" fill="url(#paint6_linear)"/>
<path d="M124.861 29.5123C125.493 32.4303 129.565 35.5701 132.949 35.5701C136.566 35.5701 138.019 31.9754 138.053 28.9021C137.531 28.8799 136.965 28.8577 136.366 28.8577C134.857 28.8356 133.615 27.6373 133.581 26.1284C133.581 26.0951 133.581 26.0619 133.581 26.0286C133.504 21.7904 128.444 22.3007 128.444 22.3007C128.444 22.3007 128.489 23.4879 128.6 24.9857C128.755 27.2157 127.157 29.2017 124.939 29.5123H124.861Z" fill="url(#paint7_linear)"/>
<path d="M160.153 70.208C160.153 70.208 160.564 71.4507 160.553 71.8834C160.542 72.3161 160.342 73.126 160.309 73.2702C160.276 73.4255 159.898 73.8693 159.787 74.1023C159.676 74.3353 159.532 74.8013 159.277 74.6903C159.277 74.6903 158.733 74.3353 159.088 73.7473C159.088 73.7473 159.266 73.2702 159.466 73.0705C159.466 73.0705 159.41 72.6045 159.477 72.1385C159.488 72.072 159.477 72.0054 159.455 71.9388C159.377 71.7169 159.199 71.1955 159.122 70.9847L159.377 71.9943C159.399 72.072 159.399 72.1496 159.388 72.2273C159.355 72.4381 159.288 72.8819 159.199 73.0594C159.088 73.2924 159 73.4699 158.844 73.6252C158.689 73.7806 158.212 74.4019 158.034 74.4795C157.857 74.5572 157.557 74.3353 157.613 74.0579C157.668 73.7917 157.779 73.4699 158.267 73.1482C158.267 73.1482 158.234 72.7598 158.412 72.427C158.589 72.0942 158.057 72.5601 158.057 72.5601L158.023 72.9596C158.023 72.9596 157.912 73.6252 157.635 73.6696C157.358 73.714 157.18 73.3035 157.302 72.8375C157.424 72.3715 157.291 71.2731 157.291 71.2731L157.346 70.2968L157.313 68.6659C157.313 68.6659 158.023 68.3885 158.045 68.4107C158.057 68.4329 160.153 70.208 160.153 70.208Z" fill="#FC8E8E"/>
<path d="M154.65 67.3565C154.551 66.9571 154.051 66.6465 153.485 66.4135L155.937 64.8491C156.059 64.949 156.17 65.0599 156.27 65.1487C156.98 65.8477 157.934 66.8795 158.8 67.3565C159.199 67.5784 159.543 67.8669 159.854 68.2108C160.02 68.3995 160.22 68.6103 160.42 68.8432C160.941 69.4202 161.618 69.9527 161.818 70.1413C162.006 70.33 162.727 71.6724 162.894 71.9054C163.071 72.1495 163.36 72.8596 163.304 73.0149C163.249 73.1702 162.861 73.3588 162.439 72.9261C162.017 72.4934 161.895 72.0829 161.895 72.0829C161.895 72.0829 161.174 71.384 160.919 70.9513C160.919 70.9513 160.065 70.219 159.832 70.1081C159.588 69.9971 158.911 69.165 158.445 69.2316C157.979 69.2981 158.223 69.9971 158.367 70.3854C158.511 70.7737 158.622 71.2064 158.667 71.5282C158.711 71.8499 158.778 72.205 158.633 72.3603C158.489 72.5267 157.89 72.7153 157.635 72.2383C157.391 71.7612 157.247 70.6406 156.636 70.1192C156.026 69.6088 154.917 68.3884 154.65 67.3565Z" fill="#FCB3B3"/>
<path d="M143.422 56.9719C143.422 56.9719 144.266 56.8943 144.488 56.9165C144.721 56.9387 145.619 57.327 145.841 57.3713C146.063 57.4268 146.385 57.7597 146.74 57.8484C147.106 57.9483 147.605 57.8928 147.283 58.4586C146.951 59.0134 143.833 57.3159 143.722 57.1605C143.611 57.0052 143.489 57.0052 143.489 57.0052C143.489 57.0052 143.223 56.9719 143.422 56.9719Z" fill="#FCB3B3"/>
<path d="M139.406 56.4615C140.26 56.8166 141.27 57.2271 141.448 57.216C141.769 57.1938 143.389 56.8499 143.611 57.0163C143.833 57.1827 144.876 57.5599 145.098 57.6376C145.32 57.7153 146.163 58.1036 146.429 58.1812C146.695 58.2589 147.605 58.5807 147.705 58.6361C147.794 58.7027 148.382 58.9135 148.648 59.0799C148.914 59.2463 149.048 59.5126 148.826 59.7123C148.604 59.9231 148.082 59.7456 147.683 59.5903C147.295 59.435 146.995 59.4128 146.773 59.3573C146.551 59.3018 145.919 59.1354 145.841 59.1243C145.763 59.1021 145.508 59.0466 145.486 59.1021C145.475 59.1687 145.763 59.2907 145.841 59.3129C145.919 59.3351 146.973 59.679 147.017 59.6901C147.062 59.7012 147.605 59.8566 147.738 59.7567C147.872 59.6679 148.182 59.7456 148.337 59.8566C148.493 59.9675 148.415 60.1894 148.371 60.2338C148.326 60.2782 148.182 60.4002 148.027 60.5444C147.872 60.6887 147.461 60.7441 147.461 60.7441C147.261 61.2656 146.607 61.3654 146.607 61.3654C146.607 61.3654 146.585 61.5984 146.418 61.7094C146.252 61.8314 145.752 61.8869 145.453 61.9091C145.164 61.9313 143.456 61.3211 143.456 61.3211C142.846 61.0437 141.148 60.0674 140.693 59.8233C140.249 59.5681 139.617 59.3684 139.617 59.3684L138.752 59.1132L139.406 56.4615Z" fill="#FCB3B3"/>
<path d="M145.508 59.1022C145.508 59.1022 145.42 59.1688 145.697 59.3352C145.974 59.5016 146.218 59.5793 146.363 59.6015C146.507 59.6237 146.951 59.7901 147.15 59.8678C147.35 59.9454 147.916 60.1118 148.071 59.9454C148.238 59.779 148.204 59.7901 148.204 59.7901C148.204 59.7901 147.938 59.6902 147.816 59.7346C147.761 59.7568 147.705 59.7901 147.705 59.7901C147.705 59.7901 147.572 59.8123 147.405 59.779C147.228 59.7457 146.773 59.6126 146.773 59.6126L146.285 59.4572L145.952 59.3463C145.952 59.3463 145.664 59.2353 145.63 59.2132C145.597 59.191 145.497 59.1355 145.508 59.1022Z" fill="#FC8E8E"/>
<path d="M145.131 60.156C145.131 60.156 144.887 60.267 145.164 60.3668C145.164 60.3668 145.664 60.5 145.852 60.5665C146.041 60.6442 146.429 60.7884 146.584 60.7884C146.751 60.7773 147.184 60.7884 147.405 60.6886C147.405 60.6886 146.973 60.7551 146.684 60.6664C146.385 60.5665 145.752 60.3335 145.542 60.2559C145.32 60.1671 145.186 60.1116 145.131 60.156Z" fill="#FC8E8E"/>
<path d="M144.643 60.9106C144.643 60.9106 144.565 60.8995 144.543 60.9772C144.521 61.0548 144.61 61.0881 144.843 61.1325C145.076 61.1769 145.653 61.3211 145.752 61.3544C145.852 61.3877 145.985 61.4653 146.196 61.4542C146.407 61.4431 146.729 61.3433 146.729 61.3433C146.729 61.3433 146.44 61.3877 146.119 61.31C145.797 61.2212 145.242 61.077 145.087 61.0215C144.943 60.955 144.643 60.9106 144.643 60.9106Z" fill="#FC8E8E"/>
<path d="M144.121 57.3048C144.121 57.3048 145.464 57.7486 145.73 57.8706C145.996 57.9816 147.295 58.4587 147.295 58.4587C147.295 58.4587 147.394 58.4365 147.406 58.1702C147.406 58.1702 147.15 58.026 146.729 57.9816C146.296 57.9372 145.985 57.7819 145.697 57.6931C145.397 57.6044 144.743 57.4047 144.121 57.3048Z" fill="#FC8E8E"/>
<path d="M136.366 17.0639V20.6808C136.366 23.5321 134.058 25.8399 131.207 25.8399C128.356 25.8399 126.048 23.5321 126.048 20.6808V17.0639C126.048 14.2125 128.356 11.9048 131.207 11.9048C132.627 11.9048 133.57 13.1363 134.857 13.4137C136.144 13.691 136.832 14.7894 136.366 17.0639Z" fill="url(#paint8_linear)"/>
<path d="M119.824 35.6588C120.356 34.9598 120.723 34.1277 120.9 33.2623C121.288 31.3207 120.689 29.3348 120.001 27.4819C119.314 25.6291 118.515 23.7541 118.493 21.7792C118.47 19.5602 119.447 17.419 120.811 15.6549C122.176 13.9019 123.907 12.4707 125.627 11.0505C124.828 13.9463 124.584 16.9863 124.905 19.9708C125.161 22.2785 125.749 24.5751 125.593 26.8939C125.382 30.2113 123.552 33.3733 120.789 35.2261" fill="url(#paint9_linear)"/>
<path d="M126.991 18.8613V16.9197C126.991 16.9197 129.132 17.3191 130.93 11.8494C130.93 11.8494 133.104 15.6216 136.344 15.3554V17.3968C136.344 17.3968 139.284 15.4885 138.685 12.0824C138.086 8.6763 134.081 7.54463 132.372 7.94404C132.372 7.94404 129.132 5.83603 126.825 6.64595C124.517 7.44478 121.854 10.0188 121.71 13.0255C121.566 16.0322 125.05 21.8458 126.481 22.9109L126.991 18.8613Z" fill="url(#paint10_linear)"/>
<path d="M127.79 19.3939C127.901 20.5699 127.457 21.5685 126.814 21.6239C126.17 21.6794 125.56 20.7807 125.449 19.6047C125.338 18.4286 125.782 17.4301 126.425 17.3746C127.069 17.3192 127.679 18.2178 127.79 19.3939Z" fill="url(#paint11_linear)"/>
<path d="M133.304 16.842C133.781 17.2082 134.48 17.3635 135.046 17.2193C135.168 17.186 135.19 17.075 135.09 16.9974C134.857 16.8199 134.558 16.6867 134.258 16.6201C133.959 16.5536 133.637 16.5536 133.36 16.6201C133.226 16.6423 133.204 16.7644 133.304 16.842Z" fill="#121C7C"/>
<path d="M133.948 19.1386C134.248 19.1386 134.491 18.8952 134.491 18.5949C134.491 18.2947 134.248 18.0513 133.948 18.0513C133.647 18.0513 133.404 18.2947 133.404 18.5949C133.404 18.8952 133.647 19.1386 133.948 19.1386Z" fill="#121C7C"/>
<path d="M132.738 21.058L131.673 21.1801C131.518 21.2022 131.385 21.0691 131.407 20.9138L131.773 19.0166C131.795 18.9278 131.873 18.8501 131.962 18.8391C132.061 18.828 132.15 18.8834 132.183 18.9722L132.938 20.7363C132.993 20.8805 132.894 21.0358 132.738 21.058Z" fill="url(#paint12_linear)"/>
<path d="M130.297 22.4558C130.131 22.4448 130.009 22.6112 130.087 22.7665C130.353 23.2769 130.852 23.643 131.462 23.6985C132.073 23.7539 132.638 23.4877 132.982 23.0328C133.082 22.8996 132.994 22.6999 132.827 22.6888L130.297 22.4558Z" fill="white"/>
<path d="M129.632 19.1386C129.932 19.1386 130.175 18.8952 130.175 18.5949C130.175 18.2947 129.932 18.0513 129.632 18.0513C129.332 18.0513 129.088 18.2947 129.088 18.5949C129.088 18.8952 129.332 19.1386 129.632 19.1386Z" fill="#121C7C"/>
<path d="M128.7 17.2082C129.288 17.3413 129.987 17.1971 130.442 16.8309C130.542 16.7533 130.508 16.6423 130.386 16.6091C130.098 16.5425 129.776 16.5425 129.465 16.6091C129.166 16.6756 128.877 16.7977 128.644 16.9863C128.544 17.0639 128.578 17.1749 128.7 17.2082Z" fill="#121C7C"/>
</g>
<defs>
<linearGradient id="paint0_linear" x1="111.799" y1="67.1831" x2="111.799" y2="76.5715" gradientUnits="userSpaceOnUse">
<stop offset="0.0036036" stop-color="#FCB3B3"/>
<stop offset="1" stop-color="#FC8E8E"/>
</linearGradient>
<linearGradient id="paint1_linear" x1="115.629" y1="69.9686" x2="115.629" y2="86.3556" gradientUnits="userSpaceOnUse">
<stop stop-color="#F788A8"/>
<stop offset="1" stop-color="#FF4D7B"/>
</linearGradient>
<linearGradient id="paint2_linear" x1="123.016" y1="40.4475" x2="122.139" y2="63.7543" gradientUnits="userSpaceOnUse">
<stop offset="1.1e-07" stop-color="#F5F5FF"/>
<stop offset="1" stop-color="#CFCFF2"/>
</linearGradient>
<linearGradient id="paint3_linear" x1="155.42" y1="43.833" x2="154.542" y2="67.1396" gradientUnits="userSpaceOnUse">
<stop offset="1.1e-07" stop-color="#F5F5FF"/>
<stop offset="1" stop-color="#CFCFF2"/>
</linearGradient>
<linearGradient id="paint4_linear" x1="149.065" y1="38.3376" x2="140.656" y2="39.1957" gradientUnits="userSpaceOnUse">
<stop stop-color="#F788A8"/>
<stop offset="1" stop-color="#FF4D7B"/>
</linearGradient>
<linearGradient id="paint5_linear" x1="132.307" y1="58.0658" x2="132.307" y2="56.6408" gradientUnits="userSpaceOnUse">
<stop stop-color="#F788A8"/>
<stop offset="1" stop-color="#FF4D7B"/>
</linearGradient>
<linearGradient id="paint6_linear" x1="124.814" y1="47.2991" x2="127.669" y2="55.3752" gradientUnits="userSpaceOnUse">
<stop stop-color="#F788A8"/>
<stop offset="1" stop-color="#FF4D7B"/>
</linearGradient>
<linearGradient id="paint7_linear" x1="124.863" y1="35.5741" x2="138.057" y2="35.5741" gradientUnits="userSpaceOnUse">
<stop offset="0.0036036" stop-color="#FCB3B3"/>
<stop offset="1" stop-color="#FC8E8E"/>
</linearGradient>
<linearGradient id="paint8_linear" x1="128.28" y1="21.8678" x2="135.134" y2="25.0189" gradientUnits="userSpaceOnUse">
<stop offset="0.0036036" stop-color="#FCB3B3"/>
<stop offset="1" stop-color="#FC8E8E"/>
</linearGradient>
<linearGradient id="paint9_linear" x1="118.508" y1="35.6571" x2="125.639" y2="35.6571" gradientUnits="userSpaceOnUse">
<stop stop-color="#4048C8"/>
<stop offset="1" stop-color="#2D32A4"/>
</linearGradient>
<linearGradient id="paint10_linear" x1="121.707" y1="22.8994" x2="138.755" y2="22.8994" gradientUnits="userSpaceOnUse">
<stop stop-color="#4048C8"/>
<stop offset="1" stop-color="#2D32A4"/>
</linearGradient>
<linearGradient id="paint11_linear" x1="126.766" y1="21.8844" x2="128.433" y2="22.9349" gradientUnits="userSpaceOnUse">
<stop offset="0.0036036" stop-color="#FCB3B3"/>
<stop offset="1" stop-color="#FC8E8E"/>
</linearGradient>
<linearGradient id="paint12_linear" x1="132.282" y1="24.1505" x2="132.282" y2="23.8319" gradientUnits="userSpaceOnUse">
<stop offset="0.0036036" stop-color="#FCB3B3"/>
<stop offset="1" stop-color="#FC8E8E"/>
</linearGradient>
</defs>
</svg>
